<?xml version="1.0" encoding="UTF-8"?><svg id="Calque_2" xmlns="http://www.w3.org/2000/svg" viewBox="0 0 432.87 126.3"><defs><style>.cls-1{stroke:#ae2b31;}.cls-1,.cls-2{fill:#cbb615;stroke-miterlimit:10;}.cls-2{stroke:#ae2931;}.cls-3{fill:#cb1517;}.cls-3,.cls-4,.cls-5{stroke-width:0px;}.cls-4{fill:#ae2931;}.cls-5{fill:#340e15;}</style></defs><g id="Calque_1-2"><polygon class="cls-3" points="66.4 0 66.4 69.81 45.88 41.57 66.4 0"/><polygon class="cls-4" points="86.92 41.57 66.4 69.81 66.4 0 86.92 41.57"/><polygon class="cls-3" points="132.8 48.24 66.4 69.81 86.92 41.57 132.8 48.24"/><polygon class="cls-4" points="132.8 48.24 99.6 80.6 66.4 69.81 132.8 48.24"/><polygon class="cls-4" points="107.44 126.3 66.4 104.73 66.4 69.81 107.44 126.3"/><polygon class="cls-4" points="66.4 69.81 25.36 126.3 33.2 80.6 66.39 69.81 66.4 69.81"/><polygon class="cls-3" points="66.39 69.81 33.2 80.6 0 48.24 66.39 69.81"/><polygon class="cls-4" points="66.4 69.81 66.39 69.81 0 48.24 45.88 41.57 66.4 69.81"/><polygon class="cls-3" points="66.4 69.81 66.4 104.73 25.36 126.3 66.4 69.81"/><polygon class="cls-3" points="107.44 126.3 66.4 69.81 99.6 80.6 107.44 126.3"/><polygon class="cls-1" points="56.73 50.53 45.94 61.32 52.57 67.95 66.59 53.93 56.73 50.53"/><path class="cls-1" d="m80.1,87.87l-23.06-24.39,3.87-3.87,24.69,22.68c1.64,1.51,1.7,4.08.12,5.66h0c-1.56,1.56-4.1,1.52-5.62-.08Z"/><path class="cls-2" d="m63.48,87.46c-5.09-1.3-9.26-3.78-12.44-7.12l3.74-3.48c1.5,1,3.5,2.12,6.39,3.86,8.7,5.25,22.64-1.8,20.15-13.42-2.3-10.79-11.99-17.39-21.13-21.29.63,0,1.28.04,1.93.12,11.79,1.41,21.93,8.76,24.09,20.3,2.52,13.48-7.21,25-22.73,21.03Z"/><polygon class="cls-1" points="57.74 85.55 50.84 93.61 46.17 89.6 52.73 81.95 57.74 85.55"/><path class="cls-5" d="m143.33,34.81V11.06h3.84v13.47l8.98-13.47h.55l-5.86,8.88,7.54,14.81v.07h-4.15l-5.59-11.55-1.47,2.26v9.29h-3.84Z"/><path class="cls-5" d="m158.93,25.86c0-5.42,4.08-9.25,9.46-9.25s9.46,3.84,9.46,9.25-4.08,9.29-9.46,9.29-9.46-3.84-9.46-9.29Zm15.11,0c0-5.21-2.23-8.81-5.66-8.81s-5.65,3.19-5.65,8.81c0,5.24,2.19,8.84,5.65,8.84,3.26,0,5.66-3.19,5.66-8.84Z"/><path class="cls-5" d="m190.08,21.44c0-1.95-1.1-3.32-2.71-3.32s-2.78,1.37-2.78,3.32v13.37h-3.7v-17.86h3.7v2.47c.72-1.71,2.3-2.81,4.32-2.81,2.3,0,4.01,1.3,4.63,3.32.62-1.92,2.36-3.32,4.59-3.32,2.91,0,4.94,2.06,4.94,5.07v13.13h-3.7v-13.3c0-2.02-1.1-3.39-2.74-3.39s-2.84,1.37-2.84,3.46v13.23h-3.7v-13.37Z"/><path class="cls-5" d="m206.32,11.5c0-1.23.96-2.16,2.23-2.16,1.2,0,2.16.93,2.16,2.16s-.96,2.19-2.16,2.19c-1.27,0-2.23-.96-2.23-2.19Zm.34,23.3v-17.86h3.7v17.86h-3.7Z"/><path class="cls-5" d="m215.23,34.81v-17.41h-1.99v-.45h1.99v-4.49h3.7v4.49h2.02v.45h-2.02v17.41h-3.7Z"/><path class="cls-5" d="m241.04,28.5c-1.1,4.01-4.63,6.65-9.08,6.65-5.38,0-9.46-3.84-9.46-9.29s4.08-9.25,9.46-9.25c4.42,0,7.99,2.6,9.08,6.55h-14.53c-.14.82-.21,1.71-.21,2.71,0,5.24,2.19,8.84,5.65,8.84,2.67,0,4.8-2.19,5.45-6.2h3.63Zm-14.46-5.79h10.69c-.65-2.91-2.4-5.66-5.31-5.66-2.6,0-4.63,2.02-5.38,5.66Z"/><path class="cls-5" d="m244.53,34.81v-17.41h-1.99v-.45h1.99v-4.49h3.7v4.49h2.02v.45h-2.02v17.41h-3.7Z"/><path class="cls-5" d="m154.92,62.74h12.44c-.75,6.41-5.79,10.73-12.3,10.73-7.09,0-12.41-5.07-12.41-12.23s5.31-12.2,12.41-12.2c5.83,0,10.45,3.43,11.93,8.64h-3.8c-.93-4.97-3.91-8.19-8.12-8.19-4.9,0-8.46,4.28-8.46,11.75,0,6.99,3.29,11.79,8.46,11.79,4.42,0,7.75-3.5,8.36-9.84h-8.5v-.45Z"/><path class="cls-5" d="m169.79,64.18c0-5.42,4.08-9.25,9.46-9.25s9.46,3.84,9.46,9.25-4.08,9.29-9.46,9.29-9.46-3.84-9.46-9.29Zm15.11,0c0-5.21-2.23-8.81-5.66-8.81s-5.65,3.19-5.65,8.81c0,5.24,2.19,8.84,5.65,8.84,3.26,0,5.66-3.19,5.66-8.84Z"/><path class="cls-5" d="m194.57,68.39c-.03.34-.03.82-.03,1.23,0,1.92.75,3.39,2.43,3.39,1.13,0,2.3-.79,2.3-3.02,0-2.64-2.12-3.63-4.08-4.76-1.88-1.06-4.11-2.57-4.08-5.45,0-3.05,2.09-4.87,5.52-4.87,3.19,0,5.62,2.19,5.59,4.9h-3.7c.03-.34.07-.72.07-1.17,0-1.75-.45-3.29-2.12-3.29-1.37,0-1.99,1.23-2.02,2.91,0,2.5,1.92,3.46,3.84,4.49,2.26,1.17,4.35,2.67,4.32,5.62,0,3.12-2.23,5.07-5.86,5.07-3.32,0-5.93-2.26-5.89-5.07h3.74Z"/><path class="cls-5" d="m208.55,68.39c-.03.34-.03.82-.03,1.23,0,1.92.75,3.39,2.43,3.39,1.13,0,2.3-.79,2.3-3.02,0-2.64-2.12-3.63-4.08-4.76-1.88-1.06-4.11-2.57-4.08-5.45,0-3.05,2.09-4.87,5.52-4.87,3.19,0,5.62,2.19,5.59,4.9h-3.7c.03-.34.07-.72.07-1.17,0-1.75-.45-3.29-2.12-3.29-1.37,0-1.99,1.23-2.02,2.91,0,2.5,1.92,3.46,3.84,4.49,2.26,1.17,4.35,2.67,4.32,5.62,0,3.12-2.23,5.07-5.86,5.07-3.32,0-5.93-2.26-5.89-5.07h3.74Z"/><path class="cls-5" d="m218.55,64.18c0-5.42,4.08-9.25,9.46-9.25s9.46,3.84,9.46,9.25-4.08,9.29-9.46,9.29-9.46-3.84-9.46-9.29Zm15.11,0c0-5.21-2.23-8.81-5.66-8.81s-5.65,3.19-5.65,8.81c0,5.24,2.19,8.84,5.65,8.84,3.26,0,5.66-3.19,5.66-8.84Z"/><path class="cls-5" d="m250.77,73.12v-2.91c-.79,1.95-2.6,3.26-4.93,3.26-3.19,0-5.48-2.36-5.48-5.62v-12.58h3.7v12.92c0,2.23,1.37,3.94,3.29,3.94s3.43-1.71,3.43-3.94v-12.92h3.7v17.86h-3.7Z"/><path class="cls-5" d="m257.52,64.18c0-5.11,3.29-9.25,8.4-9.25,3.67,0,6.27,2.06,7.4,5.31v-13.91h3.7v26.8h-3.7v-5c-1.13,3.29-3.74,5.35-7.4,5.35-5.11,0-8.4-4.15-8.4-9.29Zm15.9,0c0-5.04-2.81-8.5-6.1-8.5-3.46,0-6,3.46-6,8.5s2.47,8.5,6,8.5c3.29,0,6.1-3.46,6.1-8.5Z"/><path class="cls-5" d="m279.72,68.29c0-3.15,2.43-5.35,5.79-5.35h4.73v-3.46c0-2.88-1.23-4.11-2.81-4.11-1.47,0-2.81,1.27-2.81,4.25,0,.38.03.82.03,1.17h-3.77c0-3.43,2.84-5.86,6.54-5.86s6.51,2.43,6.51,6.17v12.03h-3.7v-2.64c-.79,1.85-2.5,2.98-4.87,2.98-3.36,0-5.66-2.23-5.66-5.17Zm10.52-.21v-4.69h-2.84c-2.43,0-3.91,1.95-3.91,4.69,0,2.47,1.27,4.25,3.36,4.25,1.95,0,3.39-1.78,3.39-4.25Z"/><path class="cls-5" d="m301.25,55.27v2.54c.69-1.78,2.19-2.88,4.18-2.88,2.74,0,4.66,2.02,4.66,4.97h-3.77c0-2.16-1.1-3.67-2.54-3.67s-2.54,1.47-2.54,3.67v13.23h-3.7v-17.86h3.7Z"/><path class="cls-5" d="m315.36,68.39c-.03.34-.03.82-.03,1.23,0,1.92.75,3.39,2.43,3.39,1.13,0,2.3-.79,2.3-3.02,0-2.64-2.12-3.63-4.08-4.76-1.88-1.06-4.11-2.57-4.08-5.45,0-3.05,2.09-4.87,5.52-4.87,3.19,0,5.62,2.19,5.59,4.9h-3.7c.03-.34.07-.72.07-1.17,0-1.75-.45-3.29-2.12-3.29-1.37,0-1.99,1.23-2.02,2.91,0,2.5,1.92,3.46,3.84,4.49,2.26,1.17,4.35,2.67,4.32,5.62,0,3.12-2.23,5.07-5.86,5.07-3.32,0-5.93-2.26-5.89-5.07h3.74Z"/><path class="cls-5" d="m327.5,73.12v-17.41h-1.99v-.45h1.99v-4.49h3.7v4.49h2.02v.45h-2.02v17.41h-3.7Z"/><path class="cls-5" d="m338.6,55.27l4.9,17.14,4.7-17.14h.51l-4.9,17.86h-3.8l-5.11-17.86h3.7Z"/><path class="cls-5" d="m368.11,66.82c-1.1,4.01-4.63,6.65-9.08,6.65-5.38,0-9.46-3.84-9.46-9.29s4.08-9.25,9.46-9.25c4.42,0,7.99,2.6,9.08,6.55h-14.53c-.14.82-.21,1.71-.21,2.71,0,5.24,2.19,8.84,5.65,8.84,2.67,0,4.8-2.19,5.45-6.2h3.63Zm-14.46-5.79h10.69c-.65-2.91-2.4-5.65-5.31-5.65-2.6,0-4.63,2.02-5.38,5.65Z"/><path class="cls-5" d="m381.47,60.3c0-2.23-1.34-4.04-3.26-4.04s-3.36,1.71-3.36,3.94v12.92h-3.7v-17.86h3.7v2.91c.79-1.95,2.57-3.26,4.9-3.26,3.15,0,5.41,2.36,5.41,5.59v12.61h-3.7v-12.82Z"/><path class="cls-5" d="m399.08,60.3c0-2.23-1.34-4.04-3.26-4.04s-3.36,1.71-3.36,3.94v12.92h-3.7v-17.86h3.7v2.91c.79-1.95,2.57-3.26,4.9-3.26,3.15,0,5.42,2.36,5.42,5.59v12.61h-3.7v-12.82Z"/><path class="cls-5" d="m405.66,64.18c0-5.42,4.08-9.25,9.46-9.25s9.46,3.84,9.46,9.25-4.08,9.29-9.46,9.29-9.46-3.84-9.46-9.29Zm15.11,0c0-5.21-2.23-8.81-5.66-8.81s-5.65,3.19-5.65,8.81c0,5.24,2.19,8.84,5.65,8.84,3.26,0,5.66-3.19,5.66-8.84Z"/><path class="cls-5" d="m425.47,52.01c0-.69.51-1.23,1.27-1.23.69,0,1.27.55,1.27,1.23,0,.75-.58,1.3-1.27,1.3-.75,0-1.27-.55-1.27-1.3Zm1.82,21.11v-17.86h3.7v17.86h-3.7Zm3.05-21.11c0-.69.51-1.23,1.27-1.23.69,0,1.27.55,1.27,1.23,0,.75-.58,1.3-1.27,1.3-.75,0-1.27-.55-1.27-1.3Z"/><path class="cls-5" d="m143.33,87.34h6.85c3.8,0,6.65,2.57,6.65,6.03,0,2.71-1.82,4.87-4.56,5.69,3.7.45,6.17,2.84,6.17,6.07,0,3.6-2.78,6.31-6.51,6.31h-8.6v-24.09Zm3.84.45v11.21h1.3c2.54,0,4.46-2.06,4.46-5.62s-1.99-5.59-4.59-5.59h-1.17Zm2.74,11.62h-2.74v11.58h2.67c2.5,0,4.66-2.16,4.66-5.79s-2.16-5.79-4.59-5.79Z"/><path class="cls-5" d="m179.32,105.13c-1.1,4.01-4.63,6.65-9.08,6.65-5.38,0-9.46-3.84-9.46-9.29s4.08-9.25,9.46-9.25c4.42,0,7.99,2.6,9.08,6.55h-14.53c-.14.82-.21,1.71-.21,2.71,0,5.24,2.19,8.84,5.65,8.84,2.67,0,4.8-2.19,5.45-6.2h3.63Zm-14.46-5.79h10.69c-.65-2.91-2.4-5.65-5.31-5.65-2.6,0-4.63,2.02-5.38,5.65Z"/><path class="cls-5" d="m180.21,111.44v-.07l9.36-17.34h-8.36v-.45h12.47v.07l-9.36,17.34h9.05v.45h-13.16Z"/><path class="cls-5" d="m194.53,102.49c0-5.42,4.08-9.25,9.46-9.25s9.46,3.84,9.46,9.25-4.08,9.29-9.46,9.29-9.46-3.84-9.46-9.29Zm15.11,0c0-5.21-2.23-8.81-5.66-8.81s-5.65,3.19-5.65,8.81c0,5.24,2.19,8.84,5.65,8.84,3.26,0,5.66-3.19,5.66-8.84Z"/><path class="cls-5" d="m220.17,93.58v5.07c1.1-3.32,3.74-5.42,7.4-5.42,5.14,0,8.4,4.15,8.4,9.25s-3.26,9.29-8.4,9.29c-3.67,0-6.31-2.09-7.4-5.45v13.95h-3.7v-26.7h3.7Zm-.1,8.91c0,5.04,2.81,8.5,6.13,8.5s5.96-3.46,5.96-8.5-2.5-8.5-5.96-8.5-6.13,3.46-6.13,8.5Z"/><path class="cls-5" d="m237.68,106.6c0-3.15,2.43-5.35,5.79-5.35h4.73v-3.46c0-2.88-1.23-4.11-2.81-4.11-1.47,0-2.81,1.27-2.81,4.25,0,.38.03.82.03,1.17h-3.77c0-3.43,2.84-5.86,6.54-5.86s6.51,2.43,6.51,6.17v12.03h-3.7v-2.64c-.79,1.85-2.5,2.98-4.87,2.98-3.36,0-5.66-2.23-5.66-5.17Zm10.52-.21v-4.69h-2.84c-2.43,0-3.91,1.95-3.91,4.69,0,2.47,1.27,4.25,3.36,4.25,1.95,0,3.39-1.78,3.39-4.25Z"/><path class="cls-5" d="m258.44,106.71c-.03.34-.03.82-.03,1.23,0,1.92.75,3.39,2.43,3.39,1.13,0,2.3-.79,2.3-3.02,0-2.64-2.12-3.63-4.08-4.76-1.88-1.06-4.11-2.57-4.08-5.45,0-3.05,2.09-4.87,5.52-4.87,3.19,0,5.62,2.19,5.59,4.9h-3.7c.03-.34.07-.72.07-1.17,0-1.75-.45-3.29-2.12-3.29-1.37,0-1.99,1.23-2.02,2.91,0,2.5,1.92,3.46,3.84,4.49,2.26,1.17,4.35,2.67,4.32,5.62,0,3.12-2.23,5.07-5.86,5.07-3.32,0-5.93-2.26-5.89-5.07h3.74Z"/><path class="cls-5" d="m279.79,98.62c0-2.23-1.34-4.04-3.26-4.04s-3.36,1.71-3.36,3.94v12.92h-3.7v-17.86h3.7v2.91c.79-1.95,2.57-3.26,4.9-3.26,3.15,0,5.41,2.36,5.41,5.59v12.61h-3.7v-12.82Z"/><path class="cls-5" d="m286.37,102.49c0-5.42,4.08-9.25,9.46-9.25s9.46,3.84,9.46,9.25-4.08,9.29-9.46,9.29-9.46-3.84-9.46-9.29Zm15.11,0c0-5.21-2.23-8.81-5.66-8.81s-5.65,3.19-5.65,8.81c0,5.24,2.19,8.84,5.65,8.84,3.26,0,5.66-3.19,5.66-8.84Z"/><path class="cls-5" d="m311.15,106.71c-.03.34-.03.82-.03,1.23,0,1.92.75,3.39,2.43,3.39,1.13,0,2.3-.79,2.3-3.02,0-2.64-2.12-3.63-4.08-4.76-1.88-1.06-4.11-2.57-4.08-5.45,0-3.05,2.09-4.87,5.52-4.87,3.19,0,5.62,2.19,5.59,4.9h-3.7c.03-.34.07-.72.07-1.17,0-1.75-.45-3.29-2.12-3.29-1.37,0-1.99,1.23-2.02,2.91,0,2.5,1.92,3.46,3.84,4.49,2.26,1.17,4.35,2.67,4.32,5.62,0,3.12-2.23,5.07-5.86,5.07-3.32,0-5.93-2.26-5.89-5.07h3.74Z"/><path class="cls-5" d="m323.28,111.44v-17.41h-1.99v-.45h1.99v-4.49h3.7v4.49h2.02v.45h-2.02v17.41h-3.7Z"/><path class="cls-5" d="m331.5,88.13c0-1.23.96-2.16,2.23-2.16,1.2,0,2.16.93,2.16,2.16s-.96,2.19-2.16,2.19c-1.27,0-2.23-.96-2.23-2.19Zm.34,23.3v-17.86h3.7v17.86h-3.7Z"/></g></svg>